<svg xmlns="http://www.w3.org/2000/svg" viewBox="0 0 360 560"><defs><linearGradient id="b" x1="0" y1="0" x2="1" y2="1"><stop stop-color="#eef2ff"/><stop offset="1" stop-color="#d7ddff"/></linearGradient><filter id="s"><feDropShadow dx="0" dy="10" stdDeviation="10" flood-opacity=".16"/></filter></defs><rect width="360" height="560" rx="48" fill="url(#b)"/><g filter="url(#s)"><ellipse cx="180" cy="500" rx="92" ry="18" fill="#5975d9" opacity=".18"/><path d="M104 465c4-80 25-135 76-135s72 55 76 135z" fill="#6582e2"/><circle cx="180" cy="207" r="111" fill="#ffe2d5"/><path d="M73 193c7-82 46-131 109-131 70 0 107 52 106 132-35-29-71-40-108-36-43 5-78 16-107 35z" fill="#445584"/><path d="M86 181c-13 2-22 16-20 33s15 29 29 27M274 181c13 2 22 16 20 33s-15 29-29 27" fill="#ffe2d5"/><ellipse cx="139" cy="218" rx="17" ry="10" fill="#31405f"/><ellipse cx="221" cy="218" rx="17" ry="10" fill="#31405f"/><path d="M153 268q27 10 54 0" fill="none" stroke="#b76d77" stroke-width="7" stroke-linecap="round"/><path d="M137 339h86l18 126H119z" fill="#f6f8ff"/><path d="M165 346h30v119h-30z" fill="#344a94"/><path d="M118 402l-51 17 10 34 59-17M242 402l51 17-10 34-59-17" fill="none" stroke="#6582e2" stroke-width="29" stroke-linecap="round"/><rect x="244" y="327" width="59" height="79" rx="9" fill="#fff" stroke="#506bc9" stroke-width="6"/><path d="M257 346h32M257 360h32M257 374h24" stroke="#7890e8" stroke-width="5" stroke-linecap="round"/></g><text x="180" y="535" text-anchor="middle" font-family="system-ui,sans-serif" font-weight="900" font-size="28" fill="#4f68c5" letter-spacing="6">AXIS</text></svg>