<svg xmlns="http://www.w3.org/2000/svg" viewBox="0 0 360 560"><defs><linearGradient id="b" x1="0" y1="0" x2="1" y2="1"><stop stop-color="#fff1f6"/><stop offset="1" stop-color="#ffd7e5"/></linearGradient><filter id="s"><feDropShadow dx="0" dy="10" stdDeviation="10" flood-opacity=".16"/></filter></defs><rect width="360" height="560" rx="48" fill="url(#b)"/><g filter="url(#s)"><ellipse cx="180" cy="500" rx="92" ry="18" fill="#ef7fa7" opacity=".18"/><path d="M105 465c4-82 26-137 75-137s71 55 75 137z" fill="#ef8caf"/><circle cx="180" cy="207" r="111" fill="#ffe3d7"/><path d="M73 198c1-88 43-140 108-140 73 0 111 57 108 142-22-32-54-47-91-48-44-2-85 15-125 46z" fill="#c76e91"/><path d="M83 181c-12 2-22 16-20 33s15 29 29 27M277 181c12 2 22 16 20 33s-15 29-29 27" fill="#ffe3d7"/><ellipse cx="138" cy="218" rx="17" ry="10" fill="#6b4f62"/><ellipse cx="222" cy="218" rx="17" ry="10" fill="#6b4f62"/><circle cx="134" cy="214" r="3" fill="#fff"/><circle cx="218" cy="214" r="3" fill="#fff"/><path d="M148 266q32 25 64 0" fill="none" stroke="#c86e7d" stroke-width="7" stroke-linecap="round"/><circle cx="112" cy="254" r="16" fill="#ff9db8" opacity=".45"/><circle cx="248" cy="254" r="16" fill="#ff9db8" opacity=".45"/><path d="M143 337q37 34 74 0" fill="#fff4f8"/><path d="M122 402l-57 22 12 33 64-18M238 402l57 22-12 33-64-18" fill="none" stroke="#ef8caf" stroke-width="29" stroke-linecap="round"/><path d="M156 358h48v107h-48z" fill="#fff1f6"/><path d="M165 361l15 19 15-19" fill="#f06f9f"/></g><text x="180" y="535" text-anchor="middle" font-family="system-ui,sans-serif" font-weight="900" font-size="28" fill="#c85e87" letter-spacing="6">EMA</text></svg>